<mxfile host="app.diagrams.net" agent="Mozilla/5.0 (Windows NT 10.0; Win64; x64) AppleWebKit/537.36 (KHTML, like Gecko) Chrome/133.0.0.0 Safari/537.36" version="28.1.2">
  <diagram name="第 1 页" id="HIaU7FWyn0M2OUOywXPi">
    <mxGraphModel dx="1763" dy="930" grid="1" gridSize="10" guides="1" tooltips="1" connect="1" arrows="1" fold="1" page="1" pageScale="1" pageWidth="827" pageHeight="1169" math="0" shadow="0">
      <root>
        <mxCell id="0" />
        <mxCell id="1" parent="0" />
        <mxCell id="oJcTg9TW4L52XOfLMMvb-41" style="edgeStyle=orthogonalEdgeStyle;rounded=0;orthogonalLoop=1;jettySize=auto;html=1;exitX=1;exitY=0.5;exitDx=0;exitDy=0;entryX=0.5;entryY=0;entryDx=0;entryDy=0;" parent="1" source="oJcTg9TW4L52XOfLMMvb-4" target="oJcTg9TW4L52XOfLMMvb-39" edge="1">
          <mxGeometry relative="1" as="geometry" />
        </mxCell>
        <mxCell id="oJcTg9TW4L52XOfLMMvb-85" style="edgeStyle=orthogonalEdgeStyle;rounded=0;orthogonalLoop=1;jettySize=auto;html=1;exitX=0;exitY=0.25;exitDx=0;exitDy=0;entryX=0.5;entryY=0;entryDx=0;entryDy=0;" parent="1" source="oJcTg9TW4L52XOfLMMvb-4" target="oJcTg9TW4L52XOfLMMvb-6" edge="1">
          <mxGeometry relative="1" as="geometry" />
        </mxCell>
        <mxCell id="oJcTg9TW4L52XOfLMMvb-94" style="edgeStyle=orthogonalEdgeStyle;rounded=0;orthogonalLoop=1;jettySize=auto;html=1;exitX=0.5;exitY=1;exitDx=0;exitDy=0;entryX=0.5;entryY=0;entryDx=0;entryDy=0;" parent="1" source="oJcTg9TW4L52XOfLMMvb-4" target="oJcTg9TW4L52XOfLMMvb-87" edge="1">
          <mxGeometry relative="1" as="geometry" />
        </mxCell>
        <mxCell id="oJcTg9TW4L52XOfLMMvb-4" value="&lt;font style=&quot;font-size: 16px;&quot;&gt;准备界面&lt;/font&gt;" style="rounded=0;whiteSpace=wrap;html=1;" parent="1" vertex="1">
          <mxGeometry x="940" y="260" width="120" height="60" as="geometry" />
        </mxCell>
        <mxCell id="oJcTg9TW4L52XOfLMMvb-81" style="edgeStyle=orthogonalEdgeStyle;rounded=0;orthogonalLoop=1;jettySize=auto;html=1;exitX=0.5;exitY=1;exitDx=0;exitDy=0;entryX=0.5;entryY=0;entryDx=0;entryDy=0;" parent="1" source="oJcTg9TW4L52XOfLMMvb-6" target="oJcTg9TW4L52XOfLMMvb-7" edge="1">
          <mxGeometry relative="1" as="geometry" />
        </mxCell>
        <mxCell id="oJcTg9TW4L52XOfLMMvb-82" style="edgeStyle=orthogonalEdgeStyle;rounded=0;orthogonalLoop=1;jettySize=auto;html=1;exitX=0.5;exitY=1;exitDx=0;exitDy=0;entryX=0.5;entryY=0;entryDx=0;entryDy=0;" parent="1" source="oJcTg9TW4L52XOfLMMvb-6" target="oJcTg9TW4L52XOfLMMvb-74" edge="1">
          <mxGeometry relative="1" as="geometry" />
        </mxCell>
        <mxCell id="oJcTg9TW4L52XOfLMMvb-83" style="edgeStyle=orthogonalEdgeStyle;rounded=0;orthogonalLoop=1;jettySize=auto;html=1;exitX=0.5;exitY=1;exitDx=0;exitDy=0;entryX=0.5;entryY=0;entryDx=0;entryDy=0;" parent="1" source="oJcTg9TW4L52XOfLMMvb-6" target="oJcTg9TW4L52XOfLMMvb-18" edge="1">
          <mxGeometry relative="1" as="geometry" />
        </mxCell>
        <mxCell id="oJcTg9TW4L52XOfLMMvb-84" style="edgeStyle=orthogonalEdgeStyle;rounded=0;orthogonalLoop=1;jettySize=auto;html=1;exitX=0.5;exitY=1;exitDx=0;exitDy=0;entryX=0.5;entryY=0;entryDx=0;entryDy=0;" parent="1" source="oJcTg9TW4L52XOfLMMvb-6" target="oJcTg9TW4L52XOfLMMvb-25" edge="1">
          <mxGeometry relative="1" as="geometry" />
        </mxCell>
        <mxCell id="oJcTg9TW4L52XOfLMMvb-86" style="edgeStyle=orthogonalEdgeStyle;rounded=0;orthogonalLoop=1;jettySize=auto;html=1;exitX=0.75;exitY=0;exitDx=0;exitDy=0;entryX=0;entryY=0.75;entryDx=0;entryDy=0;" parent="1" source="oJcTg9TW4L52XOfLMMvb-6" target="oJcTg9TW4L52XOfLMMvb-4" edge="1">
          <mxGeometry relative="1" as="geometry" />
        </mxCell>
        <mxCell id="oJcTg9TW4L52XOfLMMvb-6" value="&lt;font style=&quot;font-size: 16px;&quot;&gt;车型预览图&lt;/font&gt;" style="rounded=0;whiteSpace=wrap;html=1;" parent="1" vertex="1">
          <mxGeometry x="340" y="460" width="120" height="60" as="geometry" />
        </mxCell>
        <mxCell id="oJcTg9TW4L52XOfLMMvb-13" style="edgeStyle=orthogonalEdgeStyle;rounded=0;orthogonalLoop=1;jettySize=auto;html=1;exitX=0.5;exitY=1;exitDx=0;exitDy=0;entryX=0.5;entryY=0;entryDx=0;entryDy=0;" parent="1" source="oJcTg9TW4L52XOfLMMvb-7" target="oJcTg9TW4L52XOfLMMvb-8" edge="1">
          <mxGeometry relative="1" as="geometry" />
        </mxCell>
        <mxCell id="oJcTg9TW4L52XOfLMMvb-7" value="&lt;span style=&quot;font-size: 16px;&quot;&gt;车载主武器&lt;/span&gt;" style="rounded=0;whiteSpace=wrap;html=1;" parent="1" vertex="1">
          <mxGeometry x="250" y="595.5" width="120" height="60" as="geometry" />
        </mxCell>
        <mxCell id="oJcTg9TW4L52XOfLMMvb-14" style="edgeStyle=orthogonalEdgeStyle;rounded=0;orthogonalLoop=1;jettySize=auto;html=1;exitX=0.5;exitY=1;exitDx=0;exitDy=0;entryX=0.5;entryY=0;entryDx=0;entryDy=0;" parent="1" source="oJcTg9TW4L52XOfLMMvb-8" target="oJcTg9TW4L52XOfLMMvb-9" edge="1">
          <mxGeometry relative="1" as="geometry" />
        </mxCell>
        <mxCell id="oJcTg9TW4L52XOfLMMvb-8" value="&lt;span style=&quot;font-size: 16px;&quot;&gt;榴弹炮&lt;/span&gt;" style="rounded=0;whiteSpace=wrap;html=1;" parent="1" vertex="1">
          <mxGeometry x="250" y="725.5" width="120" height="60" as="geometry" />
        </mxCell>
        <mxCell id="oJcTg9TW4L52XOfLMMvb-9" value="&lt;span style=&quot;font-size: 16px;&quot;&gt;主武器栏&lt;/span&gt;&lt;div&gt;&lt;span style=&quot;font-size: 16px;&quot;&gt;榴弹炮&lt;/span&gt;&lt;/div&gt;" style="rounded=0;whiteSpace=wrap;html=1;" parent="1" vertex="1">
          <mxGeometry x="250" y="855.5" width="120" height="60" as="geometry" />
        </mxCell>
        <mxCell id="oJcTg9TW4L52XOfLMMvb-15" value="&lt;font style=&quot;font-size: 16px;&quot;&gt;选中&lt;/font&gt;" style="text;html=1;align=center;verticalAlign=middle;whiteSpace=wrap;rounded=0;" parent="1" vertex="1">
          <mxGeometry x="310" y="560" width="60" height="30" as="geometry" />
        </mxCell>
        <mxCell id="oJcTg9TW4L52XOfLMMvb-16" value="&lt;font style=&quot;font-size: 16px;&quot;&gt;选中&lt;/font&gt;" style="text;html=1;align=center;verticalAlign=middle;whiteSpace=wrap;rounded=0;" parent="1" vertex="1">
          <mxGeometry x="310" y="675.5" width="60" height="30" as="geometry" />
        </mxCell>
        <mxCell id="oJcTg9TW4L52XOfLMMvb-17" value="&lt;font style=&quot;font-size: 16px;&quot;&gt;解锁、装备&lt;/font&gt;" style="text;html=1;align=center;verticalAlign=middle;whiteSpace=wrap;rounded=0;" parent="1" vertex="1">
          <mxGeometry x="310" y="805.5" width="100" height="30" as="geometry" />
        </mxCell>
        <mxCell id="oJcTg9TW4L52XOfLMMvb-22" style="edgeStyle=orthogonalEdgeStyle;rounded=0;orthogonalLoop=1;jettySize=auto;html=1;exitX=0.5;exitY=1;exitDx=0;exitDy=0;entryX=0.5;entryY=0;entryDx=0;entryDy=0;" parent="1" source="oJcTg9TW4L52XOfLMMvb-18" target="oJcTg9TW4L52XOfLMMvb-21" edge="1">
          <mxGeometry relative="1" as="geometry" />
        </mxCell>
        <mxCell id="oJcTg9TW4L52XOfLMMvb-18" value="&lt;span style=&quot;font-size: 16px;&quot;&gt;装甲&lt;/span&gt;" style="rounded=0;whiteSpace=wrap;html=1;" parent="1" vertex="1">
          <mxGeometry x="430" y="595.5" width="120" height="60" as="geometry" />
        </mxCell>
        <mxCell id="oJcTg9TW4L52XOfLMMvb-24" style="edgeStyle=orthogonalEdgeStyle;rounded=0;orthogonalLoop=1;jettySize=auto;html=1;exitX=0.5;exitY=1;exitDx=0;exitDy=0;" parent="1" source="oJcTg9TW4L52XOfLMMvb-21" target="oJcTg9TW4L52XOfLMMvb-23" edge="1">
          <mxGeometry relative="1" as="geometry" />
        </mxCell>
        <mxCell id="oJcTg9TW4L52XOfLMMvb-21" value="&lt;span style=&quot;font-size: 16px;&quot;&gt;均质钢装甲&lt;/span&gt;" style="rounded=0;whiteSpace=wrap;html=1;" parent="1" vertex="1">
          <mxGeometry x="430" y="725.5" width="120" height="60" as="geometry" />
        </mxCell>
        <mxCell id="oJcTg9TW4L52XOfLMMvb-23" value="&lt;span style=&quot;font-size: 16px;&quot;&gt;装甲栏&lt;/span&gt;&lt;div&gt;&lt;span style=&quot;font-size: 16px;&quot;&gt;均质钢装甲&lt;/span&gt;&lt;/div&gt;" style="rounded=0;whiteSpace=wrap;html=1;" parent="1" vertex="1">
          <mxGeometry x="430" y="855.5" width="120" height="60" as="geometry" />
        </mxCell>
        <mxCell id="oJcTg9TW4L52XOfLMMvb-32" style="edgeStyle=orthogonalEdgeStyle;rounded=0;orthogonalLoop=1;jettySize=auto;html=1;exitX=0.5;exitY=1;exitDx=0;exitDy=0;entryX=0.5;entryY=0;entryDx=0;entryDy=0;" parent="1" source="oJcTg9TW4L52XOfLMMvb-25" target="oJcTg9TW4L52XOfLMMvb-26" edge="1">
          <mxGeometry relative="1" as="geometry" />
        </mxCell>
        <mxCell id="oJcTg9TW4L52XOfLMMvb-25" value="&lt;span style=&quot;font-size: 16px;&quot;&gt;配件槽1&lt;/span&gt;" style="rounded=0;whiteSpace=wrap;html=1;" parent="1" vertex="1">
          <mxGeometry x="610" y="595.5" width="120" height="60" as="geometry" />
        </mxCell>
        <mxCell id="oJcTg9TW4L52XOfLMMvb-35" style="edgeStyle=orthogonalEdgeStyle;rounded=0;orthogonalLoop=1;jettySize=auto;html=1;exitX=0.5;exitY=1;exitDx=0;exitDy=0;entryX=0.5;entryY=0;entryDx=0;entryDy=0;" parent="1" source="oJcTg9TW4L52XOfLMMvb-26" target="oJcTg9TW4L52XOfLMMvb-34" edge="1">
          <mxGeometry relative="1" as="geometry" />
        </mxCell>
        <mxCell id="oJcTg9TW4L52XOfLMMvb-26" value="&lt;span style=&quot;font-size: 16px;&quot;&gt;遥控武器站&lt;/span&gt;" style="rounded=0;whiteSpace=wrap;html=1;" parent="1" vertex="1">
          <mxGeometry x="610" y="725.5" width="120" height="60" as="geometry" />
        </mxCell>
        <mxCell id="oJcTg9TW4L52XOfLMMvb-27" value="&lt;font style=&quot;font-size: 16px;&quot;&gt;解锁、装备&lt;/font&gt;" style="text;html=1;align=center;verticalAlign=middle;whiteSpace=wrap;rounded=0;" parent="1" vertex="1">
          <mxGeometry x="490" y="805.5" width="100" height="30" as="geometry" />
        </mxCell>
        <mxCell id="oJcTg9TW4L52XOfLMMvb-28" value="&lt;font style=&quot;font-size: 16px;&quot;&gt;选中&lt;/font&gt;" style="text;html=1;align=center;verticalAlign=middle;whiteSpace=wrap;rounded=0;" parent="1" vertex="1">
          <mxGeometry x="490" y="675.5" width="60" height="30" as="geometry" />
        </mxCell>
        <mxCell id="oJcTg9TW4L52XOfLMMvb-29" value="&lt;font style=&quot;font-size: 16px;&quot;&gt;选中&lt;/font&gt;" style="text;html=1;align=center;verticalAlign=middle;whiteSpace=wrap;rounded=0;" parent="1" vertex="1">
          <mxGeometry x="490" y="560" width="60" height="30" as="geometry" />
        </mxCell>
        <mxCell id="oJcTg9TW4L52XOfLMMvb-31" value="&lt;font style=&quot;font-size: 16px;&quot;&gt;选中&lt;/font&gt;" style="text;html=1;align=center;verticalAlign=middle;whiteSpace=wrap;rounded=0;" parent="1" vertex="1">
          <mxGeometry x="670" y="560" width="60" height="30" as="geometry" />
        </mxCell>
        <mxCell id="oJcTg9TW4L52XOfLMMvb-33" value="&lt;font style=&quot;font-size: 16px;&quot;&gt;选中&lt;/font&gt;" style="text;html=1;align=center;verticalAlign=middle;whiteSpace=wrap;rounded=0;" parent="1" vertex="1">
          <mxGeometry x="670" y="675.5" width="60" height="30" as="geometry" />
        </mxCell>
        <mxCell id="oJcTg9TW4L52XOfLMMvb-34" value="&lt;span style=&quot;font-size: 16px;&quot;&gt;配件槽1&lt;/span&gt;&lt;div&gt;&lt;span style=&quot;font-size: 16px;&quot;&gt;遥控武器站&lt;/span&gt;&lt;/div&gt;" style="rounded=0;whiteSpace=wrap;html=1;" parent="1" vertex="1">
          <mxGeometry x="610" y="855.5" width="120" height="60" as="geometry" />
        </mxCell>
        <mxCell id="oJcTg9TW4L52XOfLMMvb-37" value="&lt;font style=&quot;font-size: 16px;&quot;&gt;装备&lt;/font&gt;" style="text;html=1;align=center;verticalAlign=middle;whiteSpace=wrap;rounded=0;" parent="1" vertex="1">
          <mxGeometry x="670" y="805.5" width="60" height="30" as="geometry" />
        </mxCell>
        <mxCell id="oJcTg9TW4L52XOfLMMvb-50" style="edgeStyle=orthogonalEdgeStyle;rounded=0;orthogonalLoop=1;jettySize=auto;html=1;exitX=0.5;exitY=1;exitDx=0;exitDy=0;entryX=0.5;entryY=0;entryDx=0;entryDy=0;" parent="1" source="oJcTg9TW4L52XOfLMMvb-39" target="oJcTg9TW4L52XOfLMMvb-45" edge="1">
          <mxGeometry relative="1" as="geometry" />
        </mxCell>
        <mxCell id="oJcTg9TW4L52XOfLMMvb-51" style="edgeStyle=orthogonalEdgeStyle;rounded=0;orthogonalLoop=1;jettySize=auto;html=1;exitX=0.5;exitY=1;exitDx=0;exitDy=0;entryX=0.5;entryY=0;entryDx=0;entryDy=0;" parent="1" source="oJcTg9TW4L52XOfLMMvb-39" target="oJcTg9TW4L52XOfLMMvb-44" edge="1">
          <mxGeometry relative="1" as="geometry" />
        </mxCell>
        <mxCell id="oJcTg9TW4L52XOfLMMvb-52" style="edgeStyle=orthogonalEdgeStyle;rounded=0;orthogonalLoop=1;jettySize=auto;html=1;exitX=0.5;exitY=1;exitDx=0;exitDy=0;" parent="1" source="oJcTg9TW4L52XOfLMMvb-39" target="oJcTg9TW4L52XOfLMMvb-46" edge="1">
          <mxGeometry relative="1" as="geometry" />
        </mxCell>
        <mxCell id="oJcTg9TW4L52XOfLMMvb-62" style="edgeStyle=orthogonalEdgeStyle;rounded=0;orthogonalLoop=1;jettySize=auto;html=1;exitX=0.5;exitY=1;exitDx=0;exitDy=0;" parent="1" source="oJcTg9TW4L52XOfLMMvb-39" target="oJcTg9TW4L52XOfLMMvb-61" edge="1">
          <mxGeometry relative="1" as="geometry" />
        </mxCell>
        <mxCell id="oJcTg9TW4L52XOfLMMvb-39" value="&lt;span style=&quot;font-size: 16px;&quot;&gt;出发&lt;/span&gt;" style="rounded=0;whiteSpace=wrap;html=1;" parent="1" vertex="1">
          <mxGeometry x="1540" y="440.5" width="120" height="60" as="geometry" />
        </mxCell>
        <mxCell id="oJcTg9TW4L52XOfLMMvb-42" value="&lt;font style=&quot;font-size: 16px;&quot;&gt;选择配装&lt;/font&gt;" style="text;html=1;align=center;verticalAlign=middle;whiteSpace=wrap;rounded=0;" parent="1" vertex="1">
          <mxGeometry x="300" y="400" width="100" height="30" as="geometry" />
        </mxCell>
        <mxCell id="oJcTg9TW4L52XOfLMMvb-43" value="&lt;font style=&quot;font-size: 16px;&quot;&gt;完成配装&lt;/font&gt;" style="text;html=1;align=center;verticalAlign=middle;whiteSpace=wrap;rounded=0;" parent="1" vertex="1">
          <mxGeometry x="430" y="400" width="100" height="30" as="geometry" />
        </mxCell>
        <mxCell id="oJcTg9TW4L52XOfLMMvb-54" style="edgeStyle=orthogonalEdgeStyle;rounded=0;orthogonalLoop=1;jettySize=auto;html=1;exitX=0.5;exitY=1;exitDx=0;exitDy=0;" parent="1" source="oJcTg9TW4L52XOfLMMvb-44" target="oJcTg9TW4L52XOfLMMvb-53" edge="1">
          <mxGeometry relative="1" as="geometry" />
        </mxCell>
        <mxCell id="oJcTg9TW4L52XOfLMMvb-44" value="&lt;span style=&quot;font-size: 16px;&quot;&gt;移动&lt;/span&gt;" style="rounded=0;whiteSpace=wrap;html=1;" parent="1" vertex="1">
          <mxGeometry x="1290" y="590.5" width="120" height="60" as="geometry" />
        </mxCell>
        <mxCell id="oJcTg9TW4L52XOfLMMvb-64" style="edgeStyle=orthogonalEdgeStyle;rounded=0;orthogonalLoop=1;jettySize=auto;html=1;exitX=0.5;exitY=1;exitDx=0;exitDy=0;entryX=0.5;entryY=0;entryDx=0;entryDy=0;" parent="1" source="oJcTg9TW4L52XOfLMMvb-45" target="oJcTg9TW4L52XOfLMMvb-53" edge="1">
          <mxGeometry relative="1" as="geometry" />
        </mxCell>
        <mxCell id="oJcTg9TW4L52XOfLMMvb-45" value="&lt;font style=&quot;font-size: 16px;&quot;&gt;受伤&lt;/font&gt;" style="rounded=0;whiteSpace=wrap;html=1;" parent="1" vertex="1">
          <mxGeometry x="1460" y="590.5" width="120" height="60" as="geometry" />
        </mxCell>
        <mxCell id="oJcTg9TW4L52XOfLMMvb-66" style="edgeStyle=orthogonalEdgeStyle;rounded=0;orthogonalLoop=1;jettySize=auto;html=1;exitX=0.5;exitY=1;exitDx=0;exitDy=0;entryX=0.5;entryY=0;entryDx=0;entryDy=0;" parent="1" source="oJcTg9TW4L52XOfLMMvb-46" target="oJcTg9TW4L52XOfLMMvb-53" edge="1">
          <mxGeometry relative="1" as="geometry" />
        </mxCell>
        <mxCell id="oJcTg9TW4L52XOfLMMvb-46" value="&lt;span style=&quot;font-size: 16px;&quot;&gt;对怪物A造成伤害（击穿）&lt;/span&gt;" style="rounded=0;whiteSpace=wrap;html=1;" parent="1" vertex="1">
          <mxGeometry x="1630" y="590.5" width="120" height="60" as="geometry" />
        </mxCell>
        <mxCell id="UGxMAjzJ2tTw3yZw7stu-46" style="edgeStyle=orthogonalEdgeStyle;rounded=0;orthogonalLoop=1;jettySize=auto;html=1;exitX=0.5;exitY=1;exitDx=0;exitDy=0;" parent="1" source="oJcTg9TW4L52XOfLMMvb-53" target="UGxMAjzJ2tTw3yZw7stu-7" edge="1">
          <mxGeometry relative="1" as="geometry" />
        </mxCell>
        <mxCell id="oJcTg9TW4L52XOfLMMvb-53" value="&lt;span style=&quot;font-size: 16px;&quot;&gt;升级&lt;/span&gt;" style="rounded=0;whiteSpace=wrap;html=1;" parent="1" vertex="1">
          <mxGeometry x="1540" y="720.5" width="120" height="60" as="geometry" />
        </mxCell>
        <mxCell id="oJcTg9TW4L52XOfLMMvb-60" style="edgeStyle=orthogonalEdgeStyle;rounded=0;orthogonalLoop=1;jettySize=auto;html=1;exitX=0.5;exitY=1;exitDx=0;exitDy=0;entryX=0.5;entryY=0;entryDx=0;entryDy=0;" parent="1" source="oJcTg9TW4L52XOfLMMvb-57" target="oJcTg9TW4L52XOfLMMvb-59" edge="1">
          <mxGeometry relative="1" as="geometry" />
        </mxCell>
        <mxCell id="oJcTg9TW4L52XOfLMMvb-57" value="&lt;span style=&quot;font-size: 16px;&quot;&gt;选择&lt;/span&gt;&lt;div&gt;&lt;span style=&quot;font-size: 16px;&quot;&gt;被帽风帽穿甲弹&lt;/span&gt;&lt;/div&gt;" style="rounded=0;whiteSpace=wrap;html=1;" parent="1" vertex="1">
          <mxGeometry x="1370" y="1015.5" width="120" height="60" as="geometry" />
        </mxCell>
        <mxCell id="UGxMAjzJ2tTw3yZw7stu-20" style="edgeStyle=orthogonalEdgeStyle;rounded=0;orthogonalLoop=1;jettySize=auto;html=1;exitX=0.5;exitY=1;exitDx=0;exitDy=0;entryX=0.5;entryY=0;entryDx=0;entryDy=0;" parent="1" source="oJcTg9TW4L52XOfLMMvb-59" target="UGxMAjzJ2tTw3yZw7stu-19" edge="1">
          <mxGeometry relative="1" as="geometry" />
        </mxCell>
        <mxCell id="oJcTg9TW4L52XOfLMMvb-59" value="&lt;span style=&quot;font-size: 16px;&quot;&gt;对怪物B造成伤害（击穿）&lt;/span&gt;" style="rounded=0;whiteSpace=wrap;html=1;" parent="1" vertex="1">
          <mxGeometry x="1370" y="1135.5" width="120" height="60" as="geometry" />
        </mxCell>
        <mxCell id="oJcTg9TW4L52XOfLMMvb-63" style="edgeStyle=orthogonalEdgeStyle;rounded=0;orthogonalLoop=1;jettySize=auto;html=1;exitX=0.5;exitY=1;exitDx=0;exitDy=0;entryX=0.5;entryY=0;entryDx=0;entryDy=0;" parent="1" source="oJcTg9TW4L52XOfLMMvb-61" target="oJcTg9TW4L52XOfLMMvb-53" edge="1">
          <mxGeometry relative="1" as="geometry" />
        </mxCell>
        <mxCell id="oJcTg9TW4L52XOfLMMvb-61" value="&lt;span style=&quot;font-size: 16px;&quot;&gt;对怪物B造成伤害（未击穿）&lt;/span&gt;" style="rounded=0;whiteSpace=wrap;html=1;" parent="1" vertex="1">
          <mxGeometry x="1800.5" y="590.5" width="120" height="60" as="geometry" />
        </mxCell>
        <mxCell id="oJcTg9TW4L52XOfLMMvb-71" style="edgeStyle=orthogonalEdgeStyle;rounded=0;orthogonalLoop=1;jettySize=auto;html=1;exitX=0.5;exitY=1;exitDx=0;exitDy=0;entryX=0.5;entryY=0;entryDx=0;entryDy=0;" parent="1" source="oJcTg9TW4L52XOfLMMvb-67" edge="1">
          <mxGeometry relative="1" as="geometry">
            <mxPoint x="1598.5" y="2005.5" as="targetPoint" />
          </mxGeometry>
        </mxCell>
        <mxCell id="oJcTg9TW4L52XOfLMMvb-67" value="&lt;span style=&quot;font-size: 16px;&quot;&gt;关卡结算&lt;/span&gt;" style="rounded=0;whiteSpace=wrap;html=1;" parent="1" vertex="1">
          <mxGeometry x="1538.5" y="1895.5" width="120" height="60" as="geometry" />
        </mxCell>
        <mxCell id="oJcTg9TW4L52XOfLMMvb-73" style="edgeStyle=orthogonalEdgeStyle;rounded=0;orthogonalLoop=1;jettySize=auto;html=1;exitX=0.5;exitY=1;exitDx=0;exitDy=0;entryX=0.5;entryY=0;entryDx=0;entryDy=0;" parent="1" source="oJcTg9TW4L52XOfLMMvb-74" target="oJcTg9TW4L52XOfLMMvb-76" edge="1">
          <mxGeometry relative="1" as="geometry" />
        </mxCell>
        <mxCell id="oJcTg9TW4L52XOfLMMvb-74" value="&lt;span style=&quot;font-size: 16px;&quot;&gt;车辆类型&lt;/span&gt;" style="rounded=0;whiteSpace=wrap;html=1;" parent="1" vertex="1">
          <mxGeometry x="70" y="595.5" width="120" height="60" as="geometry" />
        </mxCell>
        <mxCell id="oJcTg9TW4L52XOfLMMvb-76" value="&lt;span style=&quot;font-size: 16px;&quot;&gt;改进公务车&lt;/span&gt;" style="rounded=0;whiteSpace=wrap;html=1;" parent="1" vertex="1">
          <mxGeometry x="70" y="725.5" width="120" height="60" as="geometry" />
        </mxCell>
        <mxCell id="oJcTg9TW4L52XOfLMMvb-78" value="&lt;font style=&quot;font-size: 16px;&quot;&gt;选中&lt;/font&gt;" style="text;html=1;align=center;verticalAlign=middle;whiteSpace=wrap;rounded=0;" parent="1" vertex="1">
          <mxGeometry x="130" y="560" width="60" height="30" as="geometry" />
        </mxCell>
        <mxCell id="oJcTg9TW4L52XOfLMMvb-79" value="&lt;font style=&quot;font-size: 16px;&quot;&gt;选中&lt;/font&gt;" style="text;html=1;align=center;verticalAlign=middle;whiteSpace=wrap;rounded=0;" parent="1" vertex="1">
          <mxGeometry x="130" y="675.5" width="60" height="30" as="geometry" />
        </mxCell>
        <mxCell id="oJcTg9TW4L52XOfLMMvb-95" style="edgeStyle=orthogonalEdgeStyle;rounded=0;orthogonalLoop=1;jettySize=auto;html=1;exitX=0.5;exitY=1;exitDx=0;exitDy=0;entryX=0.5;entryY=0;entryDx=0;entryDy=0;" parent="1" source="oJcTg9TW4L52XOfLMMvb-87" target="oJcTg9TW4L52XOfLMMvb-88" edge="1">
          <mxGeometry relative="1" as="geometry" />
        </mxCell>
        <mxCell id="oJcTg9TW4L52XOfLMMvb-87" value="&lt;font style=&quot;font-size: 16px;&quot;&gt;Save&lt;/font&gt;" style="rounded=0;whiteSpace=wrap;html=1;" parent="1" vertex="1">
          <mxGeometry x="940" y="460" width="120" height="60" as="geometry" />
        </mxCell>
        <mxCell id="oJcTg9TW4L52XOfLMMvb-96" style="edgeStyle=orthogonalEdgeStyle;rounded=0;orthogonalLoop=1;jettySize=auto;html=1;exitX=0.5;exitY=1;exitDx=0;exitDy=0;entryX=0.5;entryY=0;entryDx=0;entryDy=0;" parent="1" source="oJcTg9TW4L52XOfLMMvb-88" target="oJcTg9TW4L52XOfLMMvb-89" edge="1">
          <mxGeometry relative="1" as="geometry" />
        </mxCell>
        <mxCell id="oJcTg9TW4L52XOfLMMvb-88" value="&lt;font style=&quot;font-size: 16px;&quot;&gt;新建存档&lt;/font&gt;" style="rounded=0;whiteSpace=wrap;html=1;" parent="1" vertex="1">
          <mxGeometry x="940" y="595.5" width="120" height="60" as="geometry" />
        </mxCell>
        <mxCell id="oJcTg9TW4L52XOfLMMvb-97" style="edgeStyle=orthogonalEdgeStyle;rounded=0;orthogonalLoop=1;jettySize=auto;html=1;exitX=0.5;exitY=1;exitDx=0;exitDy=0;entryX=0.5;entryY=0;entryDx=0;entryDy=0;" parent="1" source="oJcTg9TW4L52XOfLMMvb-89" target="oJcTg9TW4L52XOfLMMvb-90" edge="1">
          <mxGeometry relative="1" as="geometry" />
        </mxCell>
        <mxCell id="oJcTg9TW4L52XOfLMMvb-89" value="&lt;font style=&quot;font-size: 16px;&quot;&gt;覆盖存档&lt;/font&gt;" style="rounded=0;whiteSpace=wrap;html=1;" parent="1" vertex="1">
          <mxGeometry x="940" y="725.5" width="120" height="60" as="geometry" />
        </mxCell>
        <mxCell id="oJcTg9TW4L52XOfLMMvb-98" style="edgeStyle=orthogonalEdgeStyle;rounded=0;orthogonalLoop=1;jettySize=auto;html=1;exitX=0.5;exitY=1;exitDx=0;exitDy=0;entryX=0.5;entryY=0;entryDx=0;entryDy=0;" parent="1" source="oJcTg9TW4L52XOfLMMvb-90" target="oJcTg9TW4L52XOfLMMvb-91" edge="1">
          <mxGeometry relative="1" as="geometry" />
        </mxCell>
        <mxCell id="oJcTg9TW4L52XOfLMMvb-90" value="&lt;span style=&quot;font-size: 16px;&quot;&gt;退出到主界面&lt;/span&gt;" style="rounded=0;whiteSpace=wrap;html=1;" parent="1" vertex="1">
          <mxGeometry x="940" y="835.5" width="120" height="60" as="geometry" />
        </mxCell>
        <mxCell id="oJcTg9TW4L52XOfLMMvb-99" style="edgeStyle=orthogonalEdgeStyle;rounded=0;orthogonalLoop=1;jettySize=auto;html=1;exitX=0.5;exitY=1;exitDx=0;exitDy=0;entryX=0.5;entryY=0;entryDx=0;entryDy=0;" parent="1" source="oJcTg9TW4L52XOfLMMvb-91" target="oJcTg9TW4L52XOfLMMvb-92" edge="1">
          <mxGeometry relative="1" as="geometry" />
        </mxCell>
        <mxCell id="oJcTg9TW4L52XOfLMMvb-91" value="&lt;span style=&quot;font-size: 16px;&quot;&gt;Load&lt;/span&gt;" style="rounded=0;whiteSpace=wrap;html=1;" parent="1" vertex="1">
          <mxGeometry x="940" y="940" width="120" height="60" as="geometry" />
        </mxCell>
        <mxCell id="oJcTg9TW4L52XOfLMMvb-100" style="edgeStyle=orthogonalEdgeStyle;rounded=0;orthogonalLoop=1;jettySize=auto;html=1;exitX=0.5;exitY=1;exitDx=0;exitDy=0;entryX=0.5;entryY=0;entryDx=0;entryDy=0;" parent="1" source="oJcTg9TW4L52XOfLMMvb-92" target="oJcTg9TW4L52XOfLMMvb-93" edge="1">
          <mxGeometry relative="1" as="geometry" />
        </mxCell>
        <mxCell id="oJcTg9TW4L52XOfLMMvb-92" value="&lt;span style=&quot;font-size: 16px;&quot;&gt;加载存档&lt;/span&gt;" style="rounded=0;whiteSpace=wrap;html=1;" parent="1" vertex="1">
          <mxGeometry x="940" y="1050" width="120" height="60" as="geometry" />
        </mxCell>
        <mxCell id="oJcTg9TW4L52XOfLMMvb-101" style="edgeStyle=orthogonalEdgeStyle;rounded=0;orthogonalLoop=1;jettySize=auto;html=1;exitX=0.5;exitY=1;exitDx=0;exitDy=0;entryX=0.75;entryY=1;entryDx=0;entryDy=0;" parent="1" source="oJcTg9TW4L52XOfLMMvb-93" target="oJcTg9TW4L52XOfLMMvb-4" edge="1">
          <mxGeometry relative="1" as="geometry">
            <Array as="points">
              <mxPoint x="1000" y="1240" />
              <mxPoint x="1120" y="1240" />
              <mxPoint x="1120" y="420" />
              <mxPoint x="1030" y="420" />
            </Array>
          </mxGeometry>
        </mxCell>
        <mxCell id="oJcTg9TW4L52XOfLMMvb-93" value="&lt;span style=&quot;font-size: 16px;&quot;&gt;检查配装是否一致&lt;/span&gt;" style="rounded=0;whiteSpace=wrap;html=1;" parent="1" vertex="1">
          <mxGeometry x="940" y="1160" width="120" height="60" as="geometry" />
        </mxCell>
        <mxCell id="oJcTg9TW4L52XOfLMMvb-102" value="&lt;font style=&quot;font-size: 22px;&quot;&gt;1&lt;/font&gt;" style="ellipse;whiteSpace=wrap;html=1;aspect=fixed;" parent="1" vertex="1">
          <mxGeometry x="670" y="230" width="40" height="40" as="geometry" />
        </mxCell>
        <mxCell id="oJcTg9TW4L52XOfLMMvb-103" value="&lt;font style=&quot;font-size: 22px;&quot;&gt;2&lt;/font&gt;" style="ellipse;whiteSpace=wrap;html=1;aspect=fixed;" parent="1" vertex="1">
          <mxGeometry x="950" y="370" width="40" height="40" as="geometry" />
        </mxCell>
        <mxCell id="oJcTg9TW4L52XOfLMMvb-104" value="&lt;font style=&quot;font-size: 22px;&quot;&gt;3&lt;/font&gt;" style="ellipse;whiteSpace=wrap;html=1;aspect=fixed;" parent="1" vertex="1">
          <mxGeometry x="1320" y="240" width="40" height="40" as="geometry" />
        </mxCell>
        <mxCell id="oJcTg9TW4L52XOfLMMvb-107" style="edgeStyle=orthogonalEdgeStyle;rounded=0;orthogonalLoop=1;jettySize=auto;html=1;exitX=0.5;exitY=1;exitDx=0;exitDy=0;entryX=0.5;entryY=0;entryDx=0;entryDy=0;" parent="1" target="oJcTg9TW4L52XOfLMMvb-4" edge="1">
          <mxGeometry relative="1" as="geometry">
            <mxPoint x="1000" y="180" as="sourcePoint" />
          </mxGeometry>
        </mxCell>
        <mxCell id="UGxMAjzJ2tTw3yZw7stu-3" style="edgeStyle=orthogonalEdgeStyle;rounded=0;orthogonalLoop=1;jettySize=auto;html=1;exitX=1;exitY=0.5;exitDx=0;exitDy=0;entryX=0;entryY=0.5;entryDx=0;entryDy=0;" parent="1" source="oJcTg9TW4L52XOfLMMvb-108" target="UGxMAjzJ2tTw3yZw7stu-1" edge="1">
          <mxGeometry relative="1" as="geometry" />
        </mxCell>
        <mxCell id="UGxMAjzJ2tTw3yZw7stu-4" style="edgeStyle=orthogonalEdgeStyle;rounded=0;orthogonalLoop=1;jettySize=auto;html=1;exitX=1;exitY=0.5;exitDx=0;exitDy=0;entryX=0;entryY=0.5;entryDx=0;entryDy=0;" parent="1" source="oJcTg9TW4L52XOfLMMvb-108" target="oJcTg9TW4L52XOfLMMvb-111" edge="1">
          <mxGeometry relative="1" as="geometry" />
        </mxCell>
        <mxCell id="UGxMAjzJ2tTw3yZw7stu-5" style="edgeStyle=orthogonalEdgeStyle;rounded=0;orthogonalLoop=1;jettySize=auto;html=1;exitX=1;exitY=0.5;exitDx=0;exitDy=0;entryX=0;entryY=0.5;entryDx=0;entryDy=0;" parent="1" source="oJcTg9TW4L52XOfLMMvb-108" target="oJcTg9TW4L52XOfLMMvb-110" edge="1">
          <mxGeometry relative="1" as="geometry" />
        </mxCell>
        <mxCell id="UGxMAjzJ2tTw3yZw7stu-6" style="edgeStyle=orthogonalEdgeStyle;rounded=0;orthogonalLoop=1;jettySize=auto;html=1;exitX=1;exitY=0.5;exitDx=0;exitDy=0;entryX=0;entryY=0.5;entryDx=0;entryDy=0;" parent="1" source="oJcTg9TW4L52XOfLMMvb-108" target="UGxMAjzJ2tTw3yZw7stu-2" edge="1">
          <mxGeometry relative="1" as="geometry" />
        </mxCell>
        <mxCell id="oJcTg9TW4L52XOfLMMvb-108" value="&lt;span style=&quot;font-size: 16px;&quot;&gt;升级选项池&lt;/span&gt;" style="rounded=0;whiteSpace=wrap;html=1;" parent="1" vertex="1">
          <mxGeometry x="1770" y="720.5" width="120" height="60" as="geometry" />
        </mxCell>
        <mxCell id="oJcTg9TW4L52XOfLMMvb-110" value="&lt;span style=&quot;font-size: 16px;&quot;&gt;外挂履带板&lt;/span&gt;" style="rounded=0;whiteSpace=wrap;html=1;" parent="1" vertex="1">
          <mxGeometry x="2020" y="780.5" width="120" height="60" as="geometry" />
        </mxCell>
        <mxCell id="oJcTg9TW4L52XOfLMMvb-111" value="&lt;span style=&quot;font-size: 16px;&quot;&gt;被帽风帽穿甲弹&lt;/span&gt;" style="rounded=0;whiteSpace=wrap;html=1;" parent="1" vertex="1">
          <mxGeometry x="2020" y="670.5" width="120" height="60" as="geometry" />
        </mxCell>
        <mxCell id="UGxMAjzJ2tTw3yZw7stu-1" value="&lt;span style=&quot;font-size: 16px;&quot;&gt;遥控武器站&lt;/span&gt;" style="rounded=0;whiteSpace=wrap;html=1;" parent="1" vertex="1">
          <mxGeometry x="2020" y="570.5" width="120" height="60" as="geometry" />
        </mxCell>
        <mxCell id="UGxMAjzJ2tTw3yZw7stu-2" value="&lt;span style=&quot;font-size: 16px;&quot;&gt;改进自动装弹机&lt;/span&gt;" style="rounded=0;whiteSpace=wrap;html=1;" parent="1" vertex="1">
          <mxGeometry x="2020" y="880.5" width="120" height="60" as="geometry" />
        </mxCell>
        <mxCell id="UGxMAjzJ2tTw3yZw7stu-10" style="edgeStyle=orthogonalEdgeStyle;rounded=0;orthogonalLoop=1;jettySize=auto;html=1;exitX=0;exitY=0.5;exitDx=0;exitDy=0;exitPerimeter=0;entryX=0.5;entryY=0;entryDx=0;entryDy=0;" parent="1" source="UGxMAjzJ2tTw3yZw7stu-7" target="oJcTg9TW4L52XOfLMMvb-57" edge="1">
          <mxGeometry relative="1" as="geometry" />
        </mxCell>
        <mxCell id="UGxMAjzJ2tTw3yZw7stu-16" style="edgeStyle=orthogonalEdgeStyle;rounded=0;orthogonalLoop=1;jettySize=auto;html=1;exitX=1;exitY=0.5;exitDx=0;exitDy=0;exitPerimeter=0;entryX=0.5;entryY=0;entryDx=0;entryDy=0;" parent="1" source="UGxMAjzJ2tTw3yZw7stu-7" edge="1">
          <mxGeometry relative="1" as="geometry">
            <mxPoint x="1769.9999999999995" y="1015.5" as="targetPoint" />
          </mxGeometry>
        </mxCell>
        <mxCell id="UGxMAjzJ2tTw3yZw7stu-7" value="&lt;font style=&quot;font-size: 16px;&quot;&gt;选项是否有&lt;/font&gt;&lt;div&gt;&lt;font style=&quot;font-size: 16px;&quot;&gt;被帽风帽穿甲弹&lt;/font&gt;&lt;/div&gt;" style="strokeWidth=2;html=1;shape=mxgraph.flowchart.decision;whiteSpace=wrap;" parent="1" vertex="1">
          <mxGeometry x="1515" y="855.5" width="170" height="110" as="geometry" />
        </mxCell>
        <mxCell id="UGxMAjzJ2tTw3yZw7stu-11" value="&lt;font style=&quot;font-size: 16px;&quot;&gt;有&lt;/font&gt;" style="text;html=1;align=center;verticalAlign=middle;whiteSpace=wrap;rounded=0;" parent="1" vertex="1">
          <mxGeometry x="1440" y="880.5" width="60" height="30" as="geometry" />
        </mxCell>
        <mxCell id="UGxMAjzJ2tTw3yZw7stu-14" value="&lt;font style=&quot;font-size: 16px;&quot;&gt;无&lt;/font&gt;" style="text;html=1;align=center;verticalAlign=middle;whiteSpace=wrap;rounded=0;" parent="1" vertex="1">
          <mxGeometry x="1690" y="880.5" width="60" height="30" as="geometry" />
        </mxCell>
        <mxCell id="UGxMAjzJ2tTw3yZw7stu-21" style="edgeStyle=orthogonalEdgeStyle;rounded=0;orthogonalLoop=1;jettySize=auto;html=1;exitX=0.5;exitY=1;exitDx=0;exitDy=0;" parent="1" source="UGxMAjzJ2tTw3yZw7stu-17" target="UGxMAjzJ2tTw3yZw7stu-19" edge="1">
          <mxGeometry relative="1" as="geometry" />
        </mxCell>
        <mxCell id="UGxMAjzJ2tTw3yZw7stu-17" value="&lt;span style=&quot;font-size: 16px;&quot;&gt;对怪物造成伤害&lt;/span&gt;&lt;div&gt;&lt;span style=&quot;font-size: 16px;&quot;&gt;伤害数值变化&lt;/span&gt;&lt;/div&gt;" style="rounded=0;whiteSpace=wrap;html=1;" parent="1" vertex="1">
          <mxGeometry x="1710" y="1135.5" width="120" height="60" as="geometry" />
        </mxCell>
        <mxCell id="UGxMAjzJ2tTw3yZw7stu-19" value="&lt;span style=&quot;font-size: 16px;&quot;&gt;升级&lt;/span&gt;" style="rounded=0;whiteSpace=wrap;html=1;" parent="1" vertex="1">
          <mxGeometry x="1540" y="1305.5" width="120" height="60" as="geometry" />
        </mxCell>
        <mxCell id="UGxMAjzJ2tTw3yZw7stu-22" value="&lt;font style=&quot;font-size: 16px;&quot;&gt;继续游戏&lt;/font&gt;" style="text;html=1;align=center;verticalAlign=middle;whiteSpace=wrap;rounded=0;" parent="1" vertex="1">
          <mxGeometry x="1604" y="1255.5" width="76" height="30" as="geometry" />
        </mxCell>
        <mxCell id="UGxMAjzJ2tTw3yZw7stu-24" style="edgeStyle=orthogonalEdgeStyle;rounded=0;orthogonalLoop=1;jettySize=auto;html=1;exitX=0.5;exitY=1;exitDx=0;exitDy=0;entryX=0.5;entryY=0;entryDx=0;entryDy=0;entryPerimeter=0;" parent="1" source="UGxMAjzJ2tTw3yZw7stu-19" edge="1">
          <mxGeometry relative="1" as="geometry">
            <mxPoint x="1600" y="1445.5" as="targetPoint" />
          </mxGeometry>
        </mxCell>
        <mxCell id="UGxMAjzJ2tTw3yZw7stu-27" style="edgeStyle=orthogonalEdgeStyle;rounded=0;orthogonalLoop=1;jettySize=auto;html=1;exitX=0.5;exitY=1;exitDx=0;exitDy=0;entryX=0.5;entryY=0;entryDx=0;entryDy=0;" parent="1" source="UGxMAjzJ2tTw3yZw7stu-28" edge="1">
          <mxGeometry relative="1" as="geometry">
            <mxPoint x="1600" y="1895.5" as="targetPoint" />
          </mxGeometry>
        </mxCell>
        <mxCell id="UGxMAjzJ2tTw3yZw7stu-28" value="&lt;span style=&quot;font-size: 16px;&quot;&gt;对怪物造成伤害&lt;/span&gt;&lt;div&gt;&lt;span style=&quot;font-size: 16px;&quot;&gt;伤害数值变化&lt;/span&gt;&lt;/div&gt;" style="rounded=0;whiteSpace=wrap;html=1;" parent="1" vertex="1">
          <mxGeometry x="1370" y="1725.5" width="120" height="60" as="geometry" />
        </mxCell>
        <mxCell id="UGxMAjzJ2tTw3yZw7stu-29" style="edgeStyle=orthogonalEdgeStyle;rounded=0;orthogonalLoop=1;jettySize=auto;html=1;exitX=0;exitY=0.5;exitDx=0;exitDy=0;exitPerimeter=0;entryX=0.5;entryY=0;entryDx=0;entryDy=0;" parent="1" source="UGxMAjzJ2tTw3yZw7stu-31" edge="1">
          <mxGeometry relative="1" as="geometry">
            <mxPoint x="1430" y="1605.5" as="targetPoint" />
          </mxGeometry>
        </mxCell>
        <mxCell id="UGxMAjzJ2tTw3yZw7stu-30" style="edgeStyle=orthogonalEdgeStyle;rounded=0;orthogonalLoop=1;jettySize=auto;html=1;exitX=1;exitY=0.5;exitDx=0;exitDy=0;exitPerimeter=0;entryX=0.5;entryY=0;entryDx=0;entryDy=0;" parent="1" source="UGxMAjzJ2tTw3yZw7stu-31" edge="1">
          <mxGeometry relative="1" as="geometry">
            <mxPoint x="1770" y="1605.5" as="targetPoint" />
          </mxGeometry>
        </mxCell>
        <mxCell id="UGxMAjzJ2tTw3yZw7stu-31" value="&lt;span style=&quot;font-size: 16px;&quot;&gt;上一次升级选择&lt;/span&gt;" style="strokeWidth=2;html=1;shape=mxgraph.flowchart.decision;whiteSpace=wrap;" parent="1" vertex="1">
          <mxGeometry x="1515" y="1445.5" width="170" height="110" as="geometry" />
        </mxCell>
        <mxCell id="UGxMAjzJ2tTw3yZw7stu-32" value="&lt;font style=&quot;font-size: 16px;&quot;&gt;被帽风帽穿甲弹&lt;/font&gt;" style="text;html=1;align=center;verticalAlign=middle;whiteSpace=wrap;rounded=0;" parent="1" vertex="1">
          <mxGeometry x="1360" y="1470.5" width="140" height="30" as="geometry" />
        </mxCell>
        <mxCell id="UGxMAjzJ2tTw3yZw7stu-33" value="&lt;font style=&quot;font-size: 16px;&quot;&gt;遥控武器站&lt;/font&gt;" style="text;html=1;align=center;verticalAlign=middle;whiteSpace=wrap;rounded=0;" parent="1" vertex="1">
          <mxGeometry x="1690" y="1470.5" width="100" height="30" as="geometry" />
        </mxCell>
        <mxCell id="UGxMAjzJ2tTw3yZw7stu-36" style="edgeStyle=orthogonalEdgeStyle;rounded=0;orthogonalLoop=1;jettySize=auto;html=1;exitX=0.5;exitY=1;exitDx=0;exitDy=0;" parent="1" source="UGxMAjzJ2tTw3yZw7stu-37" edge="1">
          <mxGeometry relative="1" as="geometry">
            <mxPoint x="1600" y="1895.5" as="targetPoint" />
          </mxGeometry>
        </mxCell>
        <mxCell id="UGxMAjzJ2tTw3yZw7stu-37" value="&lt;span style=&quot;font-size: 16px;&quot;&gt;对怪物B造成伤害（击穿）&lt;/span&gt;" style="rounded=0;whiteSpace=wrap;html=1;" parent="1" vertex="1">
          <mxGeometry x="1710" y="1725.5" width="120" height="60" as="geometry" />
        </mxCell>
        <mxCell id="UGxMAjzJ2tTw3yZw7stu-38" value="&lt;font style=&quot;font-size: 16px;&quot;&gt;继续游戏&lt;/font&gt;" style="text;html=1;align=center;verticalAlign=middle;whiteSpace=wrap;rounded=0;" parent="1" vertex="1">
          <mxGeometry x="1604" y="1845.5" width="76" height="30" as="geometry" />
        </mxCell>
        <mxCell id="UGxMAjzJ2tTw3yZw7stu-42" style="edgeStyle=orthogonalEdgeStyle;rounded=0;orthogonalLoop=1;jettySize=auto;html=1;exitX=0.5;exitY=1;exitDx=0;exitDy=0;entryX=0.5;entryY=0;entryDx=0;entryDy=0;" parent="1" source="UGxMAjzJ2tTw3yZw7stu-40" target="UGxMAjzJ2tTw3yZw7stu-37" edge="1">
          <mxGeometry relative="1" as="geometry" />
        </mxCell>
        <mxCell id="UGxMAjzJ2tTw3yZw7stu-40" value="&lt;span style=&quot;font-size: 16px;&quot;&gt;选择&lt;/span&gt;&lt;div&gt;&lt;span style=&quot;font-size: 16px;&quot;&gt;被帽风帽穿甲弹&lt;/span&gt;&lt;/div&gt;" style="rounded=0;whiteSpace=wrap;html=1;" parent="1" vertex="1">
          <mxGeometry x="1710" y="1605.5" width="120" height="60" as="geometry" />
        </mxCell>
        <mxCell id="UGxMAjzJ2tTw3yZw7stu-43" value="&lt;font style=&quot;font-size: 16px;&quot;&gt;结束&lt;/font&gt;" style="strokeWidth=2;html=1;shape=mxgraph.flowchart.terminator;whiteSpace=wrap;" parent="1" vertex="1">
          <mxGeometry x="1548.5" y="2005.5" width="100" height="60" as="geometry" />
        </mxCell>
        <mxCell id="UGxMAjzJ2tTw3yZw7stu-45" value="&lt;font style=&quot;font-size: 16px;&quot;&gt;开始&lt;/font&gt;" style="strokeWidth=2;html=1;shape=mxgraph.flowchart.terminator;whiteSpace=wrap;" parent="1" vertex="1">
          <mxGeometry x="950" y="120" width="100" height="60" as="geometry" />
        </mxCell>
        <mxCell id="eRp9R2UtpNuijiu8jXST-3" style="edgeStyle=orthogonalEdgeStyle;rounded=0;orthogonalLoop=1;jettySize=auto;html=1;exitX=0.5;exitY=1;exitDx=0;exitDy=0;entryX=0.5;entryY=0;entryDx=0;entryDy=0;" edge="1" parent="1" source="eRp9R2UtpNuijiu8jXST-2" target="UGxMAjzJ2tTw3yZw7stu-17">
          <mxGeometry relative="1" as="geometry" />
        </mxCell>
        <mxCell id="eRp9R2UtpNuijiu8jXST-2" value="&lt;span style=&quot;font-size: 16px;&quot;&gt;选择&lt;/span&gt;&lt;div&gt;&lt;span style=&quot;font-size: 16px;&quot;&gt;遥控武器站&lt;/span&gt;&lt;/div&gt;" style="rounded=0;whiteSpace=wrap;html=1;" vertex="1" parent="1">
          <mxGeometry x="1710" y="1015.5" width="120" height="60" as="geometry" />
        </mxCell>
        <mxCell id="eRp9R2UtpNuijiu8jXST-5" style="edgeStyle=orthogonalEdgeStyle;rounded=0;orthogonalLoop=1;jettySize=auto;html=1;exitX=0.5;exitY=1;exitDx=0;exitDy=0;entryX=0.5;entryY=0;entryDx=0;entryDy=0;" edge="1" parent="1" source="eRp9R2UtpNuijiu8jXST-4" target="UGxMAjzJ2tTw3yZw7stu-28">
          <mxGeometry relative="1" as="geometry" />
        </mxCell>
        <mxCell id="eRp9R2UtpNuijiu8jXST-4" value="&lt;span style=&quot;font-size: 16px;&quot;&gt;选择&lt;/span&gt;&lt;div&gt;&lt;span style=&quot;font-size: 16px;&quot;&gt;遥控武器站&lt;/span&gt;&lt;/div&gt;" style="rounded=0;whiteSpace=wrap;html=1;" vertex="1" parent="1">
          <mxGeometry x="1370" y="1605.5" width="120" height="60" as="geometry" />
        </mxCell>
      </root>
    </mxGraphModel>
  </diagram>
</mxfile>
